<?xml version="1.0" encoding="UTF-8" standalone="no"?>
<!-- Created with Inkscape (http://www.inkscape.org/) -->

<svg
   width="162.36819mm"
   height="162.29825mm"
   viewBox="0 0 162.36819 162.29825"
   version="1.1"
   id="svg5"
   inkscape:version="1.2.2 (b0a84865, 2022-12-01)"
   sodipodi:docname="kowloon.svg"
   inkscape:export-filename="../kowloon-core/public/icons/favicon.ico.png"
   inkscape:export-xdpi="96"
   inkscape:export-ydpi="96"
   xmlns:inkscape="http://www.inkscape.org/namespaces/inkscape"
   xmlns:sodipodi="http://sodipodi.sourceforge.net/DTD/sodipodi-0.dtd"
   xmlns="http://www.w3.org/2000/svg"
   xmlns:svg="http://www.w3.org/2000/svg">
  <sodipodi:namedview
     id="namedview7"
     pagecolor="#606060"
     bordercolor="#000000"
     borderopacity="1"
     inkscape:showpageshadow="false"
     inkscape:pageopacity="0"
     inkscape:pagecheckerboard="false"
     inkscape:deskcolor="#d1d1d1"
     inkscape:document-units="mm"
     showgrid="false"
     inkscape:zoom="0.2102413"
     inkscape:cx="-430.45776"
     inkscape:cy="306.79034"
     inkscape:window-width="1728"
     inkscape:window-height="999"
     inkscape:window-x="0"
     inkscape:window-y="38"
     inkscape:window-maximized="1"
     inkscape:current-layer="layer3" />
  <defs
     id="defs2" />
  <g
     inkscape:groupmode="layer"
     id="layer3"
     inkscape:label="Layer 4">
    <ellipse
       style="fill:#782121;stroke-width:20;stop-color:#000000"
       id="path930"
       cx="81.184097"
       cy="81.149124"
       rx="81.184097"
       ry="81.149124" />
  </g>
  <g
     inkscape:groupmode="layer"
     id="layer2"
     inkscape:label="Layer 2"
     transform="translate(-23.815906,-67.350873)"
     sodipodi:insensitive="true">
    <path
       style="fill:#ffcc00;stroke-width:0.264583"
       d="m 128.7642,193.03864 c -0.3638,-0.0514 -1.67349,-0.22849 -2.91041,-0.39348 -9.21005,-1.22854 -14.92652,-5.75305 -16.85299,-13.33891 -0.39113,-1.54016 -0.4685,-3.02438 -0.46858,-8.98852 -9e-5,-6.55699 0.0713,-7.68705 0.86912,-13.75834 0.47807,-3.63802 1.28699,-9.17442 1.7976,-12.30312 1.0498,-6.43248 1.4021,-10.96155 0.92238,-11.85792 -0.59208,-1.10631 -2.92549,-0.65746 -11.91102,2.29117 l -5.402858,1.77297 -1.02261,4.09532 c -1.97838,7.92293 -5.13888,16.43067 -8.449783,22.74596 -6.08858,11.61349 -14.98512,20.73033 -25.241651,25.86667 -2.832449,1.41846 -5.176979,2.24293 -6.076419,2.13683 l -0.7414,-0.0875 0.76878,-0.91085 c 0.42283,-0.50098 2.76179,-2.49488 5.197699,-4.43091 2.435901,-1.93602 5.552121,-4.65059 6.924941,-6.03236 7.79943,-7.85031 13.71064,-17.798 17.99551,-30.28377 1.75915,-5.12602 3.12507,-10.06815 2.78267,-10.06815 -0.31472,0 -8.76722,3.04902 -12.68515,4.57585 -1.6735,0.65216 -3.59234,1.26351 -4.26411,1.35856 -2.39349,0.33869 -7.04175,-1.04217 -8.919921,-2.64981 -1.15256,-0.98655 -1.37293,-1.67323 -0.71279,-2.22109 0.21487,-0.17834 2.804491,-0.67388 5.754691,-1.1012 2.9502,-0.42733 6.73322,-1.08213 8.40671,-1.45511 4.41075,-0.98305 13.791073,-3.68826 14.008403,-4.03991 0.23589,-0.38169 1.22194,-6.7781 1.73682,-11.26667 0.4663,-4.06501 0.51668,-10.6444 0.0966,-12.62245 -0.16375,-0.77115 -0.64,-2.0833 -1.05833,-2.9159 -0.8594,-1.71042 -0.99095,-3.04462 -0.32538,-3.30002 0.65512,-0.25139 4.54063,0.33695 6.46564,0.97902 2.51473,0.83876 6.038768,2.88681 6.499138,3.77707 0.45162,0.87335 0.30477,1.49469 -0.70155,2.96816 -1.411428,2.06666 -2.909878,7.18608 -4.606008,15.73638 -0.50449,2.54314 -0.85604,4.6851 -0.78122,4.75991 0.21638,0.21638 9.084728,-2.8678 11.469858,-3.98891 1.19108,-0.55986 2.87609,-1.55202 3.74447,-2.2048 2.59189,-1.94835 3.60503,-1.93279 7.75015,0.11899 2.79836,1.38516 5.82031,3.62908 6.487,4.81689 0.35272,0.62841 0.34777,0.79881 -0.0473,1.62734 -0.24272,0.50899 -1.09379,1.41806 -1.89127,2.02016 -4.14988,3.1332 -7.03753,9.47724 -8.73388,19.18801 -2.44294,13.98452 -1.68601,22.88153 2.28448,26.85202 3.03249,3.03249 10.21464,5.03306 16.73675,4.66198 5.02431,-0.28586 9.83896,-1.28562 12.30313,-2.55474 3.07189,-1.58211 4.69985,-5.10094 6.19414,-13.38862 0.37075,-2.05629 0.81232,-4.08035 0.98127,-4.49791 l 0.30718,-0.75921 0.20108,0.66146 c 0.11059,0.36381 0.21422,1.85209 0.23029,3.30729 0.0595,5.38943 0.9459,11.59982 2.28917,16.0384 0.91807,3.0336 0.74897,4.19745 -0.83026,5.7145 -1.3895,1.33479 -3.3032,1.97964 -7.65308,2.57882 -5.55851,0.76567 -15.95556,1.1891 -18.91771,0.77045 z"
       id="path373" />
    <g
       id="g396"
       style="fill:#ff6600"
       transform="translate(-58.097888,80.373411)">
      <path
         style="fill:#ff6600;stroke-width:0.264583"
         d="m 114.21475,62.669652 c -1.96569,-0.73053 -3.86905,-1.917546 -5.08256,-3.169705 -1.36394,-1.407385 -1.04724,-1.75156 1.6142,-1.754195 5.29607,-0.0052 12.60334,-1.28211 25.90229,-4.526135 l 6.51327,-1.588786 1.46895,-3.093018 c 0.80792,-1.701157 1.70496,-3.871169 1.99342,-4.822246 0.66425,-2.190091 1.0031,-4.753062 0.62839,-4.753062 -0.15064,0 -1.50381,0.296359 -3.00705,0.658575 -5.06972,1.221586 -9.67987,1.318127 -12.6996,0.265943 -1.13638,-0.395958 -1.78479,-1.018777 -1.33294,-1.280331 0.10278,-0.0595 1.79422,-0.55083 3.75876,-1.09185 1.96453,-0.541021 6.42937,-1.945683 9.92187,-3.121471 l 6.35,-2.137797 2.91042,-0.01997 c 3.33465,-0.02288 4.63021,0.339194 4.63021,1.294037 0,1.082352 -1.8138,2.145546 -6.52472,3.824598 l -2.79019,0.994473 2.07776,0.984972 c 2.16924,1.028331 3.53298,2.096766 3.53298,2.767934 0,0.216853 -1.8157,2.235859 -4.0349,4.486682 -2.21919,2.250824 -3.79677,4.007046 -3.50573,3.902718 1.47519,-0.528799 7.15207,-1.758063 9.12813,-1.976593 3.34109,-0.369488 5.77328,0.304509 6.04246,1.674452 0.25493,1.297406 -1.94105,2.137082 -8.68829,3.322137 -6.16539,1.082863 -10.8836,2.177032 -16.0073,3.712147 -2.32833,0.697595 -5.54302,1.642848 -7.14375,2.100564 -4.03246,1.153054 -8.44416,2.594636 -10.24463,3.347569 -1.87372,0.783571 -3.29978,0.783137 -5.41145,-0.0016 z"
         id="path375" />
      <path
         style="fill:#ff6600;stroke-width:0.264583"
         d="m 148.6417,28.491547 c -1.69154,-1.018593 -8.44627,-6.373225 -9.8471,-7.806031 -1.25334,-1.281943 -1.07551,-1.85405 0.67973,-2.186843 1.27332,-0.241421 5.87685,0.291679 7.89106,0.913805 2.05596,0.635025 3.88855,2.159622 4.64891,3.867605 0.68975,1.549372 0.76527,4.489584 0.13984,5.444115 -0.64567,0.985412 -1.59395,0.922601 -3.51244,-0.232651 z"
         id="path379" />
      <path
         style="fill:#ff6600;stroke-width:0.264583"
         d="m 133.59773,51.35277 c -1.11464,-1.30221 -1.8162,-3.058705 -2.44841,-6.130094 -0.38486,-1.869688 -0.40294,-2.308645 -0.10967,-2.66202 0.45711,-0.550783 0.88683,-0.533678 2.08287,0.08292 1.50887,0.777867 3.18843,2.344129 3.81458,3.557256 0.69653,1.349497 0.73424,3.152254 0.0921,4.403341 -1.13854,2.218246 -2.01065,2.408502 -3.43147,0.748599 z"
         id="path377" />
      <path
         style="fill:#ff6600;stroke-width:0.264583"
         d="m 183.97812,115.13892 c -8.86765,-0.63198 -15.76258,-4.26356 -18.29057,-9.63371 -2.05684,-4.36929 -2.47566,-9.097417 -2.0618,-23.276159 0.47341,-16.219108 0.36633,-19.048247 -0.84138,-22.232172 -1.25807,-3.316644 -0.21047,-3.534685 4.98125,-1.036769 l 2.44062,1.174268 7.43824,-1.633712 c 6.61168,-1.452171 7.4625,-1.697527 7.65657,-2.20799 0.3867,-1.017095 1.32291,-7.032305 1.32291,-8.49979 0,-1.100243 -0.12812,-1.550167 -0.56616,-1.988208 -0.52116,-0.521158 -0.74725,-0.552765 -2.84427,-0.397635 -1.25296,0.09269 -2.90018,0.335892 -3.66049,0.540449 -1.47765,0.397557 -3.24783,1.364181 -3.24783,1.773515 0,0.136771 -0.28312,0.377672 -0.62915,0.535334 -0.49361,0.224904 -0.84233,0.185497 -1.61873,-0.182933 -2.17147,-1.03043 -2.55494,-3.230316 -1.07074,-6.142638 1.17051,-2.296802 1.58649,-4.864052 1.37028,-8.456894 -0.29605,-4.919576 -1.13231,-7.865333 -2.88282,-10.154787 -1.34875,-1.764001 -1.55375,-2.207512 -1.18896,-2.5723 0.16782,-0.167814 0.66826,-0.303288 1.1121,-0.301054 1.0415,0.0052 4.67633,0.920873 5.6458,1.422204 1.1849,0.612735 2.33178,1.940956 2.68025,3.104041 0.20037,0.668777 0.44528,1.02149 0.65373,0.941497 0.87468,-0.335646 8.99023,-2.860044 10.73959,-3.340623 3.32555,-0.913587 5.24051,-0.589328 6.87785,1.16462 0.61357,0.657272 0.62982,0.746033 0.25778,1.408857 -1.26931,2.261431 -5.61092,3.508378 -14.11518,4.054002 -2.48848,0.159658 -4.54851,0.312258 -4.57784,0.339112 -0.20395,0.186701 -1.11436,10.885513 -0.97588,11.46812 0.57236,2.408052 2.56819,2.175359 7.51138,-0.875755 1.93473,-1.194181 3.25495,-1.270357 5.35489,-0.308975 2.82924,1.29527 6.55148,4.164182 6.55148,5.049544 0,0.232889 -0.65771,0.909317 -1.46159,1.503174 -1.92348,1.420956 -3.49626,3.466214 -5.2029,6.765891 l -1.39435,2.695873 1.11901,1.213975 c 1.13434,1.230611 1.42508,2.242838 0.78827,2.744417 -0.4674,0.368144 -1.17758,0.511675 -5.50277,1.112131 -2.10309,0.291965 -6.63752,1.081759 -10.07653,1.7551 l -6.25273,1.224253 -0.3088,1.494428 c -0.35939,1.739281 -0.69712,6.124633 -0.47168,6.124633 0.58602,0 8.0783,-1.485905 10.86076,-2.15396 4.25861,-1.022469 6.18231,-0.98553 7.82114,0.150178 1.43037,0.991248 1.41976,1.621641 -0.0381,2.265772 -2.719,1.201309 -6.01393,1.910607 -12.50156,2.691209 -3.63802,0.437732 -6.64989,0.830993 -6.69303,0.873916 -0.14621,0.145447 -0.6577,6.769727 -0.5324,6.895029 0.1162,0.116199 12.30059,-1.987945 14.63376,-2.527131 2.64831,-0.612016 5.70991,-0.05177 6.78301,1.241237 0.29086,0.350462 0.23261,0.50936 -0.3798,1.036132 -1.43791,1.236845 -6.67966,2.283452 -13.81154,2.757715 -2.47386,0.16451 -5.10924,0.35751 -5.85642,0.428892 l -1.35849,0.129781 -0.18605,2.729648 c -0.10233,1.501304 -0.10202,3.402213 7.9e-4,4.224239 l 0.18674,1.494595 0.82864,-0.134941 c 4.26022,-0.693756 9.0096,-1.582591 11.41198,-2.135727 1.60073,-0.368559 3.48599,-0.797113 4.18946,-0.952341 1.85512,-0.409345 3.44163,-0.09766 4.40463,0.865341 1.70358,1.703583 0.77901,2.705314 -3.28625,3.560466 -3.56789,0.75053 -7.19874,1.18813 -12.04029,1.451134 -2.68748,0.145986 -4.92966,0.308771 -4.98263,0.361741 -0.22146,0.221461 0.86232,3.835461 1.57814,5.262511 1.52825,3.04667 3.7689,4.7884 7.25199,5.63718 2.61244,0.63661 12.17867,0.63521 16.90787,-0.002 9.56267,-1.28944 14.27062,-3.34281 16.13055,-7.03536 0.63382,-1.25833 1.7142,-6.322394 2.398,-11.240064 0.2214,-1.592286 0.45014,-2.942653 0.5083,-3.000811 0.11028,-0.110284 0.19114,0.456165 0.69051,4.837546 0.40864,3.585292 1.29247,6.926212 2.59904,9.824529 1.18836,2.6361 1.3954,4.29405 0.70335,5.63233 -1.02561,1.9833 -5.61683,4.882 -9.80059,6.18765 -3.98722,1.24432 -9.76658,1.97303 -18.9177,2.38529 -1.09141,0.0492 -3.23454,2.6e-4 -4.7625,-0.10859 z"
         id="path371" />
      <path
         style="fill:#ff6600;stroke-width:0.264583"
         d="m 144.73757,116.94844 c -0.35107,-0.47294 -1.08538,-1.80218 -1.6318,-2.95385 -1.17361,-2.47361 -2.64558,-4.04124 -5.36358,-5.71211 -2.61158,-1.60545 -2.5541,-1.97118 0.26458,-1.68359 1.20055,0.1225 2.95672,0.22418 3.90261,0.22598 1.70853,0.003 1.7228,-0.003 2.17928,-0.93594 1.03465,-2.11479 1.16367,-8.608525 0.4387,-22.079552 -0.60882,-11.312667 -1.62775,-14.683059 -4.4396,-14.685051 -0.52608,-2.65e-4 -2.40355,0.192926 -4.17215,0.429553 l -3.21565,0.430234 -0.16363,2.414717 c -0.09,1.328092 -0.2344,3.353977 -0.32088,4.501964 l -0.15724,2.087253 0.7584,-0.174635 c 4.11672,-0.947957 5.58889,-0.848688 6.5465,0.441436 1.07615,1.449813 -0.30507,2.195007 -4.58879,2.475738 l -2.59516,0.170069 -0.58393,3.20332 c -0.32116,1.761824 -0.64498,3.470794 -0.7196,3.797708 -0.125,0.54769 -0.0659,0.581271 0.75269,0.427453 0.48859,-0.09182 1.78132,-0.447067 2.87272,-0.789448 1.09141,-0.342384 2.35527,-0.624033 2.80859,-0.625891 1.53533,-0.0063 3.33615,2.072024 2.74785,3.171272 -0.56877,1.062752 -1.70525,1.357482 -5.84847,1.516714 -2.59272,0.09964 -3.94179,0.250893 -3.94274,0.442034 -7.9e-4,0.159808 -0.24399,1.957435 -0.54046,3.994726 -0.73311,5.037906 -1.95646,9.924996 -3.06646,12.250046 -1.54205,3.23006 -2.77274,3.16919 -3.81965,-0.18892 -0.29876,-0.95831 -0.61192,-2.77114 -0.69592,-4.02851 -0.14351,-2.14818 -0.0871,-2.49943 0.93525,-5.820834 2.2546,-7.324939 4.57082,-21.587012 4.16088,-25.620587 -0.0957,-0.942137 -0.47355,-2.430418 -0.83955,-3.307292 -1.53669,-3.681621 -1.47037,-3.83772 1.40306,-3.302397 4.09878,0.763609 8.4951,0.152157 12.47977,-1.735711 2.67771,-1.268653 3.89234,-1.246913 6.73518,0.120568 2.55392,1.228497 4.02376,2.381697 4.26604,3.347019 0.12242,0.487727 -0.0242,1.076896 -0.48961,1.966891 -0.83188,1.590945 -1.20794,3.859284 -1.21051,7.301677 -0.003,3.486435 0.67063,15.341662 1.21522,21.3993 0.77463,8.616436 -0.25374,14.570726 -3.00453,17.396356 -1.25279,1.28687 -2.17085,1.32659 -3.05741,0.13229 z"
         id="path369" />
    </g>
  </g>
</svg>
